<svg width="25" height="29" viewBox="0 0 25 29" fill="none" xmlns="http://www.w3.org/2000/svg">
<path d="M23.6333 13.3174L19.9589 9.35444C19.5306 8.89259 18.9215 8.62769 18.2878 8.62769H6.12482C5.49106 8.62769 4.882 8.89259 4.45374 9.35444L0.779282 13.3174C0.162194 13.9829 0.131084 15.0133 0.70698 15.714L11.2598 28.5545C11.4924 28.8376 11.8374 28.9999 12.2063 28.9999C12.5752 28.9999 12.9201 28.8376 13.1528 28.5545L23.7056 15.714C24.2815 15.0132 24.2504 13.9829 23.6333 13.3174ZM18.4904 9.49219L17.5123 12.3286C17.4357 12.5507 17.5557 12.7921 17.7804 12.8679C17.8263 12.8833 17.8731 12.8907 17.919 12.8907C18.0978 12.8907 18.2648 12.7795 18.3257 12.6028L19.2679 9.87038C19.2875 9.88924 19.3068 9.9085 19.3253 9.92849L22.9998 13.8915C23.0528 13.9486 23.0968 14.0111 23.1336 14.0767H17.4477L13.183 9.47724H18.2877C18.356 9.4773 18.4236 9.48251 18.4904 9.49219ZM16.2819 14.0767H8.1306L12.2063 9.68114L16.2819 14.0767ZM11.2295 9.47729L7.35717 13.6536L5.92218 9.49219C5.98893 9.48256 6.05659 9.47729 6.12477 9.47729H11.2295ZM5.08721 9.92855C5.10578 9.9085 5.12503 9.88924 5.14468 9.87044L6.59513 14.0768H1.27892C1.31576 14.0112 1.35976 13.9487 1.41276 13.8915L5.08721 9.92855ZM1.22507 14.9263H16.6165L12.2063 27.7161L8.29039 16.36C8.21385 16.1379 7.96973 16.0192 7.74503 16.095C7.52039 16.1707 7.40036 16.4121 7.47696 16.6341L11.0239 26.9202L1.37391 15.1783C1.31026 15.1008 1.26122 15.0156 1.22507 14.9263ZM13.3886 26.9202L17.5244 14.9263H23.1875C23.1513 15.0156 23.1023 15.1008 23.0386 15.1782L13.3886 26.9202Z" fill="#C7B27D"/>
<path d="M12.207 6.75281C12.4443 6.75281 12.6367 6.56261 12.6367 6.328V0.424805C12.6367 0.190199 12.4443 0 12.207 0C11.9697 0 11.7773 0.190199 11.7773 0.424805V6.328C11.7773 6.56261 11.9697 6.75281 12.207 6.75281Z" fill="#C7B27D"/>
<path d="M7.68739 6.972C7.76267 7.12085 7.91438 7.20695 8.07205 7.20695C8.13661 7.20695 8.20216 7.1925 8.26386 7.16197C8.47612 7.05702 8.56218 6.80191 8.45602 6.59206L6.61879 2.9593C6.51268 2.74944 6.25458 2.66437 6.04232 2.76932C5.83005 2.87428 5.744 3.12939 5.85016 3.33924L7.68739 6.972Z" fill="#C7B27D"/>
<path d="M16.1478 7.16197C16.2095 7.1925 16.275 7.20695 16.3396 7.20695C16.4972 7.20695 16.649 7.12085 16.7243 6.972L18.5615 3.33924C18.6676 3.12939 18.5816 2.87428 18.3693 2.76932C18.1571 2.66437 17.899 2.74944 17.7929 2.9593L15.9556 6.59206C15.8495 6.80191 15.9355 7.05708 16.1478 7.16197Z" fill="#C7B27D"/>
</svg>
