<svg width="41" height="40" viewBox="0 0 41 40" fill="none" xmlns="http://www.w3.org/2000/svg">
<path d="M40.0771 19.883C40.0771 9.06395 31.3067 0.293457 20.4876 0.293456C9.66863 0.293456 0.89777 9.06395 0.89777 19.883C0.897769 30.702 9.66862 39.4728 20.4876 39.4728C31.3016 39.4606 40.065 30.6973 40.0771 19.883H40.0771ZM2.85697 19.883C2.85697 10.1458 10.7505 2.2523 20.4876 2.2523C30.2248 2.2523 38.1183 10.1458 38.1183 19.883C38.1183 29.6202 30.2248 37.5136 20.4876 37.5136C10.7551 37.5025 2.86809 29.6155 2.85697 19.883V19.883Z" fill="#C7B27D"/>
<path d="M28.0811 17.5895C28.4373 17.182 28.3956 16.5633 27.9885 16.2071C27.581 15.8512 26.9623 15.8929 26.6061 16.3L20.4875 23.2931L14.3684 16.2996C14.0123 15.8921 13.3935 15.8509 12.9864 16.2067C12.5789 16.5629 12.5373 17.1817 12.8935 17.5891L19.75 25.4249C19.9358 25.6376 20.2048 25.7595 20.4875 25.7595C20.7701 25.7595 21.0388 25.6376 21.2249 25.4249L28.0811 17.5895Z" fill="#C7B27D"/>
</svg>
